<svg xmlns="http://www.w3.org/2000/svg" width="28" height="28" fill="white" viewBox="0 0 16 16">
                <path d="M13.601 2.326A7.854 7.854 0 0 0 8.003 0C3.584 0 .012 3.575.012 7.998c0 1.41.368 2.786 1.057 4.01L0 16l4.113-1.075a7.933 7.933 0 0 0 3.89 1.003h.004A7.995 7.995 0 0 0 16 7.998a7.948 7.948 0 0 0-2.399-5.672zM8.006 14.52a6.52 6.52 0 0 1-3.322-.903l-.238-.141-2.438.638.652-2.374-.155-.244A6.52 6.52 0 0 1 1.48 7.998c0-3.59 2.93-6.52 6.526-6.52a6.48 6.48 0 0 1 4.611 1.91 6.43 6.43 0 0 1 1.914 4.61 6.52 6.52 0 0 1-6.526 6.522zm3.66-4.87c-.2-.1-1.176-.578-1.36-.644-.182-.067-.315-.1-.446.1-.133.2-.513.644-.63.776-.117.133-.233.15-.433.05-.2-.1-.842-.31-1.604-.99-.592-.528-.99-1.18-1.106-1.38-.117-.2-.013-.31.088-.41.09-.09.2-.233.3-.35.1-.117.133-.2.2-.333.067-.133.033-.25-.017-.35-.05-.1-.446-1.076-.61-1.47-.16-.383-.323-.33-.446-.336-.117-.006-.25-.008-.383-.008a.74.74 0 0 0-.533.25c-.183.2-.7.683-.7 1.666 0 .983.717 1.933.817 2.067.1.133 1.41 2.15 3.413 3.017.478.206.85.327 1.14.42.477.152.91.13 1.253.079.383-.058 1.176-.48 1.343-.943.167-.464.167-.863.117-.943-.05-.083-.183-.133-.383-.233z"></path>
            </svg>